<svg width="86" height="85" viewBox="0 0 86 85" fill="none" xmlns="http://www.w3.org/2000/svg">
<path fill-rule="evenodd" clip-rule="evenodd" d="M85.375 74.325C85.375 77.3583 84.325 79.925 82.225 82.025C80.2417 84.0083 77.7333 85 74.7 85C68.4 85 62.5083 83.775 57.025 81.325C51.6583 78.7583 46.9917 75.1417 43.025 70.475C38.9417 75.025 34.1583 78.5833 28.675 81.15C23.3083 83.7167 17.475 85 11.175 85C8.14167 85 5.575 84.0083 3.475 82.025C1.49167 79.925 0.5 77.3583 0.5 74.325C0.5 71.4083 1.49167 68.9583 3.475 66.975C5.575 64.875 8.14167 63.825 11.175 63.825C17.0083 63.825 21.9667 61.7833 26.05 57.7C30.25 53.5 32.35 48.425 32.35 42.475V10.8C32.35 7.76667 33.3417 5.25833 35.325 3.275C37.425 1.175 39.9917 0.125 43.025 0.125C45.9417 0.125 48.3917 1.175 50.375 3.275C52.475 5.25833 53.525 7.76667 53.525 10.8V42.475C53.525 48.3083 55.5667 53.3833 59.65 57.7C63.9667 61.7833 68.9833 63.825 74.7 63.825C77.7333 63.825 80.2417 64.875 82.225 66.975C84.325 68.9583 85.375 71.4083 85.375 74.325Z" fill="url(#paint0_linear_372_1630)"/>
<path fill-rule="evenodd" clip-rule="evenodd" d="M0.5 10.8V42.475C0.5 45.5083 1.49167 48.075 3.475 50.175C5.575 52.1583 8.14167 53.15 11.175 53.15C14.0917 53.15 16.5417 52.1583 18.525 50.175C20.625 48.075 21.675 45.5083 21.675 42.475V10.8C21.675 7.76667 20.625 5.25833 18.525 3.275C16.5417 1.175 14.0917 0.125 11.175 0.125C8.14167 0.125 5.575 1.175 3.475 3.275C1.49167 5.25833 0.5 7.76667 0.5 10.8ZM85.375 42.475V10.8C85.375 7.76667 84.325 5.25833 82.225 3.275C80.2417 1.175 77.7333 0.125 74.7 0.125C71.7833 0.125 69.275 1.175 67.175 3.275C65.1917 5.25833 64.2 7.76667 64.2 10.8V42.475C64.2 45.5083 65.1917 48.075 67.175 50.175C69.275 52.1583 71.7833 53.15 74.7 53.15C77.7333 53.15 80.2417 52.1583 82.225 50.175C84.325 48.075 85.375 45.5083 85.375 42.475Z" fill="url(#paint1_linear_372_1630)"/>
<defs>
<linearGradient id="paint0_linear_372_1630" x1="42.9375" y1="0.125" x2="42.9375" y2="85" gradientUnits="userSpaceOnUse">
<stop stop-color="#2A2A2A"/>
<stop offset="1" stop-color="#1F1F1F"/>
</linearGradient>
<linearGradient id="paint1_linear_372_1630" x1="42.9375" y1="0.125" x2="42.9375" y2="85" gradientUnits="userSpaceOnUse">
<stop stop-color="#2A2A2A"/>
<stop offset="1" stop-color="#1F1F1F"/>
</linearGradient>
</defs>
</svg>
