<svg width="212" height="185" viewBox="0 0 212 185" fill="none" xmlns="http://www.w3.org/2000/svg">
<path d="M99.843 68.9529C99.843 68.9529 99.8465 68.9513 99.8499 68.9497C103.937 66.963 107.228 63.9764 110.313 60.7729C117.063 53.7615 122.3 45.8053 125.563 36.6875C127.343 31.7185 128.371 26.6221 127.443 21.3919C125.871 12.5364 118.296 6.35658 109.02 8.00561C103.614 8.96554 99.7605 12.2435 97.0924 16.9234C95.8188 19.157 94.6262 21.4375 93.3019 23.6439C90.3907 28.492 86.1681 31.8402 80.9163 33.9674C78.5672 34.917 77.036 36.5516 76.6287 38.9656C75.8443 43.6315 80.2692 47.3233 84.9471 46.2075C86.8052 45.7656 91.7729 46.4898 93.2079 49.5729C94.6429 52.656 94.8301 55.4023 90.7311 59.0524C87.8319 61.6367 87.4189 65.3558 89.7021 68.226C91.5809 70.5909 94.1023 70.7748 96.8299 70.0931C97.8613 69.8287 98.839 69.3398 99.843 68.9529Z" fill="url(#paint0_linear_1328_3316)"/>
<path d="M67.1308 21.1761C64.3162 15.129 66.9367 7.94529 72.9838 5.13077C79.0308 2.31624 86.2145 4.93672 89.029 10.9838C91.8436 17.0308 89.2231 24.2145 83.1761 27.029C77.129 29.8436 69.9453 27.2231 67.1308 21.1761Z" fill="url(#paint1_linear_1328_3316)"/>
<path d="M99.843 68.9529C99.843 68.9529 99.8465 68.9513 99.8499 68.9497C103.937 66.963 107.228 63.9764 110.313 60.7729C117.063 53.7615 122.3 45.8053 125.563 36.6875C127.343 31.7185 128.371 26.6221 127.443 21.3919C125.871 12.5364 118.296 6.35658 109.02 8.00561C103.614 8.96554 99.7605 12.2435 97.0924 16.9234C95.8188 19.157 94.6262 21.4375 93.3019 23.6439C90.3907 28.492 86.1681 31.8402 80.9163 33.9674C78.5672 34.917 77.036 36.5516 76.6287 38.9656C75.8443 43.6315 80.2692 47.3233 84.9471 46.2075C86.8052 45.7656 91.7729 46.4898 93.2079 49.5729C94.6429 52.656 94.8301 55.4023 90.7311 59.0524C87.8319 61.6367 87.4189 65.3558 89.7021 68.226C91.5809 70.5909 94.1023 70.7748 96.8299 70.0931C97.8613 69.8287 98.839 69.3398 99.843 68.9529Z" fill="url(#paint2_linear_1328_3316)"/>
<path d="M67.1308 21.1761C64.3162 15.129 66.9367 7.94529 72.9838 5.13077C79.0308 2.31624 86.2145 4.93672 89.029 10.9838C91.8436 17.0308 89.2231 24.2145 83.1761 27.029C77.129 29.8436 69.9453 27.2231 67.1308 21.1761Z" fill="url(#paint3_linear_1328_3316)"/>
<g filter="url(#filter0_d_1328_3316)">
<path d="M95.7236 31.0525C53.3472 31.0525 19 64.621 19 106.019C19 122.982 24.7772 138.619 34.4899 151.184C74.7301 148.869 115.717 151.215 155.989 152.373C166.281 139.619 172.437 123.529 172.437 106.019C172.437 64.621 138.089 31.063 95.7131 31.063L95.7236 31.0525Z" fill="url(#paint4_linear_1328_3316)"/>
</g>
<g filter="url(#filter1_d_1328_3316)">
<path d="M127.093 131.664C139.588 131.664 149.717 121.534 149.717 109.039C149.717 96.5439 139.588 86.4146 127.093 86.4146C114.598 86.4146 104.468 96.5439 104.468 109.039C104.468 121.534 114.598 131.664 127.093 131.664Z" fill="url(#paint5_linear_1328_3316)"/>
</g>
<mask id="mask0_1328_3316" style="mask-type:alpha" maskUnits="userSpaceOnUse" x="104" y="86" width="46" height="46">
<path d="M127.093 131.664C139.588 131.664 149.717 121.534 149.717 109.039C149.717 96.5439 139.588 86.4146 127.093 86.4146C114.598 86.4146 104.468 96.5439 104.468 109.039C104.468 121.534 114.598 131.664 127.093 131.664Z" fill="url(#paint6_linear_1328_3316)"/>
</mask>
<g mask="url(#mask0_1328_3316)">
<g filter="url(#filter2_i_1328_3316)">
<path d="M127.29 102.957C126.512 102.852 125.943 102.189 125.901 101.4C125.365 91.6552 110.601 88.593 106.539 97.948C106.539 97.9374 106.539 97.9164 106.539 97.9059C98.0152 111.67 109.264 130.212 125.28 129.349C141.791 129.317 142.78 105.051 127.301 102.957H127.29Z" fill="black"/>
</g>
<g filter="url(#filter3_d_1328_3316)">
<path d="M148.587 122.208L99.7585 111.446C99.7757 100.528 109.021 80.1056 145.866 85.7686C182.711 91.4317 163.032 112.421 148.587 122.208Z" fill="url(#paint7_linear_1328_3316)"/>
</g>
</g>
<g filter="url(#filter4_d_1328_3316)">
<path d="M64.4925 131.706C76.9877 131.706 87.1171 121.576 87.1171 109.081C87.1171 96.5859 76.9877 86.4565 64.4925 86.4565C51.9973 86.4565 41.8679 96.5859 41.8679 109.081C41.8679 121.576 51.9973 131.706 64.4925 131.706Z" fill="url(#paint8_linear_1328_3316)"/>
</g>
<mask id="mask1_1328_3316" style="mask-type:alpha" maskUnits="userSpaceOnUse" x="41" y="86" width="47" height="46">
<path d="M64.4925 131.706C76.9877 131.706 87.1171 121.576 87.1171 109.081C87.1171 96.5859 76.9877 86.4565 64.4925 86.4565C51.9973 86.4565 41.8679 96.5859 41.8679 109.081C41.8679 121.576 51.9973 131.706 64.4925 131.706Z" fill="url(#paint9_linear_1328_3316)"/>
</mask>
<g mask="url(#mask1_1328_3316)">
<g filter="url(#filter5_i_1328_3316)">
<path d="M64.3871 102.957C65.1658 102.851 65.7341 102.188 65.7762 101.399C66.3129 91.6549 81.0767 88.5927 85.1386 97.9477C85.1386 97.9372 85.1386 97.9161 85.1386 97.9056C93.6623 111.67 82.4131 130.211 66.397 129.349C49.8864 129.317 48.8972 105.051 64.3766 102.957H64.3871Z" fill="black"/>
</g>
<g filter="url(#filter6_d_1328_3316)">
<path d="M91.9431 111.138L43.0209 121.463C38.535 111.508 38.539 89.0909 74.4415 79.0605C110.344 69.03 101.069 96.2659 91.9431 111.138Z" fill="url(#paint10_linear_1328_3316)"/>
</g>
</g>
<g filter="url(#filter7_d_1328_3316)">
<path d="M167.48 148.964C169.869 145.586 171.29 141.482 171.29 137.03C171.29 125.602 162.029 116.342 150.601 116.342C143.277 116.342 136.858 120.151 133.186 125.897C122.452 123.961 109.94 122.845 96.576 122.845C83.2117 122.845 70.6998 123.961 59.9663 125.907C56.2937 120.172 49.8747 116.353 42.5506 116.353C31.1226 116.353 21.8623 125.613 21.8623 137.041C21.8623 141.513 23.2934 145.638 25.7032 149.016C26.4819 150.279 27.5974 151.5 29.039 152.678C30.3228 153.794 31.7435 154.741 33.2798 155.509C45.5287 162.359 69.2897 167 96.5865 167C123.883 167 147.739 162.338 159.967 155.477C161.451 154.72 162.829 153.794 164.081 152.72C165.565 151.521 166.712 150.268 167.491 148.974L167.48 148.964Z" fill="url(#paint11_linear_1328_3316)"/>
</g>
<g filter="url(#filter8_d_1328_3316)">
<path d="M95.7657 127.854C102.316 127.854 107.625 125.927 107.625 123.55C107.625 121.173 102.316 119.246 95.7657 119.246C89.2159 119.246 83.9062 121.173 83.9062 123.55C83.9062 125.927 89.2159 127.854 95.7657 127.854Z" fill="url(#paint12_linear_1328_3316)"/>
</g>
<path fill-rule="evenodd" clip-rule="evenodd" d="M73.9722 70.661C74.1595 72.3072 72.9769 73.7937 71.3307 73.981C67.9984 74.3603 65.2343 75.6197 63.2816 76.8122C62.3106 77.4052 61.5596 77.97 61.0622 78.3761C60.8141 78.5787 60.6311 78.7402 60.5173 78.8438C60.4604 78.8956 60.4211 78.9327 60.3997 78.9532L60.3816 78.9706C59.2094 80.1335 57.3164 80.1306 56.1477 78.9619C54.9762 77.7903 54.9761 75.8908 56.1477 74.7193L58.269 76.8406C56.1477 74.7193 56.1485 74.7185 56.1492 74.7178L56.1508 74.7161L56.1544 74.7126L56.163 74.7041L56.1857 74.6817C56.2034 74.6645 56.226 74.6425 56.2535 74.6162C56.3085 74.5636 56.3832 74.4934 56.4771 74.4079C56.6647 74.2371 56.9295 74.0045 57.2674 73.7285C57.942 73.1777 58.9155 72.4482 60.1544 71.6916C62.6213 70.185 66.2184 68.5242 70.6521 68.0195C72.2984 67.8321 73.7848 69.0148 73.9722 70.661ZM60.3813 78.9709C60.3807 78.9715 60.3807 78.9715 60.3813 78.9709Z" fill="url(#paint13_linear_1328_3316)"/>
<path fill-rule="evenodd" clip-rule="evenodd" d="M119.668 71.1871C119.856 69.5409 121.342 68.3583 122.988 68.5456C127.422 69.0503 131.019 70.7111 133.486 72.2177C134.725 72.9743 135.698 73.7039 136.373 74.2547C136.711 74.5306 136.976 74.7632 137.163 74.9341C137.257 75.0196 137.332 75.0897 137.387 75.1423C137.414 75.1686 137.437 75.1906 137.455 75.2078L137.477 75.2302L137.486 75.2387L137.49 75.2423L137.491 75.2439C137.492 75.2446 137.493 75.2454 135.371 77.3667L137.493 75.2454C138.664 76.4169 138.664 78.3164 137.493 79.488C136.324 80.6567 134.431 80.6596 133.259 79.4967L133.241 79.4793C133.219 79.4589 133.18 79.4217 133.123 79.3699C133.009 79.2663 132.826 79.1048 132.578 78.9022C132.081 78.4961 131.33 77.9313 130.359 77.3383C128.406 76.1458 125.642 74.8864 122.31 74.5072C120.663 74.3198 119.481 72.8333 119.668 71.1871Z" fill="url(#paint14_linear_1328_3316)"/>
<g filter="url(#filter9_i_1328_3316)">
<path d="M141.489 139.464C147.52 139.464 152.408 136.594 152.408 133.054C152.408 129.515 147.52 126.645 141.489 126.645C135.458 126.645 130.569 129.515 130.569 133.054C130.569 136.594 135.458 139.464 141.489 139.464Z" fill="#FF6A5F"/>
</g>
<g filter="url(#filter10_i_1328_3316)">
<path d="M51.0466 139.464C57.2084 139.464 62.2035 136.594 62.2035 133.054C62.2035 129.515 57.2084 126.645 51.0466 126.645C44.8848 126.645 39.8896 129.515 39.8896 133.054C39.8896 136.594 44.8848 139.464 51.0466 139.464Z" fill="#FF6A5F"/>
</g>
<g filter="url(#filter11_i_1328_3316)">
<path d="M191.246 27.0933C191.321 24.2562 191.926 22.1958 193.388 19.7766L198.258 11.8539L197.58 11.836C193.727 11.7345 191.704 9.68964 191.799 6.09035C191.894 2.49107 194.021 0.555533 197.875 0.657046L204.989 0.844454C208.842 0.945968 210.864 2.99082 210.77 6.59011L210.724 8.32624C210.65 11.121 210.132 13.0989 208.795 15.6061L204.519 23.5021C208.288 23.6014 210.268 25.6452 210.172 29.2868C210.077 32.8861 207.95 34.8216 204.096 34.7201L196.982 34.5327C193.129 34.4312 191.109 32.3016 191.21 28.4483L191.246 27.0933Z" fill="#FF6A5F"/>
</g>
<g filter="url(#filter12_i_1328_3316)">
<path d="M178.808 41.2469C178.331 39.4514 178.33 38.0456 178.802 36.2563L180.396 30.3812L179.968 30.4952C177.529 31.1432 175.881 30.2326 175.276 27.9547C174.671 25.6768 175.649 24.0684 178.088 23.4203L182.59 22.224C185.029 21.576 186.676 22.4866 187.282 24.7644L187.574 25.8632C188.044 27.6319 188.084 28.9698 187.707 30.7913L186.48 36.5399C188.865 35.9061 190.486 36.8238 191.099 39.1285C191.704 41.4064 190.725 43.0149 188.287 43.6629L183.785 44.8593C181.346 45.5073 179.684 44.5431 179.036 42.1044L178.808 41.2469Z" fill="#94AFFF"/>
</g>
<g filter="url(#filter13_i_1328_3316)">
<path d="M170.526 51.0883C169.794 49.9278 169.483 48.9371 169.421 47.572L169.251 43.0793L168.974 43.2541C167.398 44.2483 166.035 43.9696 165.107 42.4974C164.178 41.0252 164.513 39.6758 166.089 38.6816L168.999 36.8461C170.575 35.8519 171.938 36.1307 172.866 37.6029L173.314 38.313C174.035 39.4562 174.358 40.3904 174.494 41.7574L174.896 46.0798C176.438 45.1074 177.783 45.3971 178.722 46.8866C179.651 48.3588 179.316 49.7082 177.739 50.7024L174.83 52.5379C173.253 53.5321 171.869 53.2187 170.875 51.6425L170.526 51.0883Z" fill="#89DBBD"/>
</g>
<g filter="url(#filter14_i_1328_3316)">
<path d="M162.023 57.8753C161.521 57.0798 161.309 56.4007 161.266 55.465L161.149 52.3855L160.959 52.5053C159.879 53.1868 158.945 52.9957 158.308 51.9866C157.672 50.9774 157.902 50.0525 158.982 49.371L160.977 48.1129C162.057 47.4314 162.991 47.6225 163.627 48.6316L163.934 49.1184C164.429 49.902 164.65 50.5423 164.743 51.4794L165.019 54.4421C166.075 53.7756 166.997 53.9742 167.641 54.9952C168.278 56.0044 168.048 56.9293 166.968 57.6108L164.973 58.8689C163.893 59.5504 162.944 59.3356 162.263 58.2552L162.023 57.8753Z" fill="#FFD569"/>
</g>
<defs>
<filter id="filter0_d_1328_3316" x="0.4" y="11.4525" width="190.637" height="158.52" filterUnits="userSpaceOnUse" color-interpolation-filters="sRGB">
<feFlood flood-opacity="0" result="BackgroundImageFix"/>
<feColorMatrix in="SourceAlpha" type="matrix" values="0 0 0 0 0 0 0 0 0 0 0 0 0 0 0 0 0 0 127 0" result="hardAlpha"/>
<feOffset dy="-1"/>
<feGaussianBlur stdDeviation="9.3"/>
<feComposite in2="hardAlpha" operator="out"/>
<feColorMatrix type="matrix" values="0 0 0 0 0 0 0 0 0 0 0 0 0 0 0 0 0 0 0.1 0"/>
<feBlend mode="normal" in2="BackgroundImageFix" result="effect1_dropShadow_1328_3316"/>
<feBlend mode="normal" in="SourceGraphic" in2="effect1_dropShadow_1328_3316" result="shape"/>
</filter>
<filter id="filter1_d_1328_3316" x="85.8683" y="66.8146" width="82.449" height="82.449" filterUnits="userSpaceOnUse" color-interpolation-filters="sRGB">
<feFlood flood-opacity="0" result="BackgroundImageFix"/>
<feColorMatrix in="SourceAlpha" type="matrix" values="0 0 0 0 0 0 0 0 0 0 0 0 0 0 0 0 0 0 127 0" result="hardAlpha"/>
<feOffset dy="-1"/>
<feGaussianBlur stdDeviation="9.3"/>
<feComposite in2="hardAlpha" operator="out"/>
<feColorMatrix type="matrix" values="0 0 0 0 0 0 0 0 0 0 0 0 0 0 0 0 0 0 0.3 0"/>
<feBlend mode="normal" in2="BackgroundImageFix" result="effect1_dropShadow_1328_3316"/>
<feBlend mode="normal" in="SourceGraphic" in2="effect1_dropShadow_1328_3316" result="shape"/>
</filter>
<filter id="filter2_i_1328_3316" x="102.611" y="92.3066" width="35.7029" height="41.071" filterUnits="userSpaceOnUse" color-interpolation-filters="sRGB">
<feFlood flood-opacity="0" result="BackgroundImageFix"/>
<feBlend mode="normal" in="SourceGraphic" in2="BackgroundImageFix" result="shape"/>
<feColorMatrix in="SourceAlpha" type="matrix" values="0 0 0 0 0 0 0 0 0 0 0 0 0 0 0 0 0 0 127 0" result="hardAlpha"/>
<feOffset dx="-1" dy="4"/>
<feGaussianBlur stdDeviation="8.1"/>
<feComposite in2="hardAlpha" operator="arithmetic" k2="-1" k3="1"/>
<feColorMatrix type="matrix" values="0 0 0 0 1 0 0 0 0 1 0 0 0 0 1 0 0 0 0.5 0"/>
<feBlend mode="normal" in2="shape" result="effect1_innerShadow_1328_3316"/>
</filter>
<filter id="filter3_d_1328_3316" x="81.1585" y="65.1952" width="104.397" height="74.6131" filterUnits="userSpaceOnUse" color-interpolation-filters="sRGB">
<feFlood flood-opacity="0" result="BackgroundImageFix"/>
<feColorMatrix in="SourceAlpha" type="matrix" values="0 0 0 0 0 0 0 0 0 0 0 0 0 0 0 0 0 0 127 0" result="hardAlpha"/>
<feOffset dy="-1"/>
<feGaussianBlur stdDeviation="9.3"/>
<feComposite in2="hardAlpha" operator="out"/>
<feColorMatrix type="matrix" values="0 0 0 0 0 0 0 0 0 0 0 0 0 0 0 0 0 0 0.3 0"/>
<feBlend mode="normal" in2="BackgroundImageFix" result="effect1_dropShadow_1328_3316"/>
<feBlend mode="normal" in="SourceGraphic" in2="effect1_dropShadow_1328_3316" result="shape"/>
</filter>
<filter id="filter4_d_1328_3316" x="23.2679" y="66.8565" width="82.449" height="82.449" filterUnits="userSpaceOnUse" color-interpolation-filters="sRGB">
<feFlood flood-opacity="0" result="BackgroundImageFix"/>
<feColorMatrix in="SourceAlpha" type="matrix" values="0 0 0 0 0 0 0 0 0 0 0 0 0 0 0 0 0 0 127 0" result="hardAlpha"/>
<feOffset dy="-1"/>
<feGaussianBlur stdDeviation="9.3"/>
<feComposite in2="hardAlpha" operator="out"/>
<feColorMatrix type="matrix" values="0 0 0 0 0 0 0 0 0 0 0 0 0 0 0 0 0 0 0.3 0"/>
<feBlend mode="normal" in2="BackgroundImageFix" result="effect1_dropShadow_1328_3316"/>
<feBlend mode="normal" in="SourceGraphic" in2="effect1_dropShadow_1328_3316" result="shape"/>
</filter>
<filter id="filter5_i_1328_3316" x="52.364" y="92.3064" width="35.7029" height="41.071" filterUnits="userSpaceOnUse" color-interpolation-filters="sRGB">
<feFlood flood-opacity="0" result="BackgroundImageFix"/>
<feBlend mode="normal" in="SourceGraphic" in2="BackgroundImageFix" result="shape"/>
<feColorMatrix in="SourceAlpha" type="matrix" values="0 0 0 0 0 0 0 0 0 0 0 0 0 0 0 0 0 0 127 0" result="hardAlpha"/>
<feOffset dx="-1" dy="4"/>
<feGaussianBlur stdDeviation="8.1"/>
<feComposite in2="hardAlpha" operator="arithmetic" k2="-1" k3="1"/>
<feColorMatrix type="matrix" values="0 0 0 0 1 0 0 0 0 1 0 0 0 0 1 0 0 0 0.5 0"/>
<feBlend mode="normal" in2="shape" result="effect1_innerShadow_1328_3316"/>
</filter>
<filter id="filter6_d_1328_3316" x="22.3844" y="57.2948" width="96.439" height="81.7684" filterUnits="userSpaceOnUse" color-interpolation-filters="sRGB">
<feFlood flood-opacity="0" result="BackgroundImageFix"/>
<feColorMatrix in="SourceAlpha" type="matrix" values="0 0 0 0 0 0 0 0 0 0 0 0 0 0 0 0 0 0 127 0" result="hardAlpha"/>
<feOffset dy="-1"/>
<feGaussianBlur stdDeviation="9.3"/>
<feComposite in2="hardAlpha" operator="out"/>
<feColorMatrix type="matrix" values="0 0 0 0 0 0 0 0 0 0 0 0 0 0 0 0 0 0 0.3 0"/>
<feBlend mode="normal" in2="BackgroundImageFix" result="effect1_dropShadow_1328_3316"/>
<feBlend mode="normal" in="SourceGraphic" in2="effect1_dropShadow_1328_3316" result="shape"/>
</filter>
<filter id="filter7_d_1328_3316" x="3.2623" y="96.742" width="186.627" height="87.858" filterUnits="userSpaceOnUse" color-interpolation-filters="sRGB">
<feFlood flood-opacity="0" result="BackgroundImageFix"/>
<feColorMatrix in="SourceAlpha" type="matrix" values="0 0 0 0 0 0 0 0 0 0 0 0 0 0 0 0 0 0 127 0" result="hardAlpha"/>
<feOffset dy="-1"/>
<feGaussianBlur stdDeviation="9.3"/>
<feComposite in2="hardAlpha" operator="out"/>
<feColorMatrix type="matrix" values="0 0 0 0 0 0 0 0 0 0 0 0 0 0 0 0 0 0 0.1 0"/>
<feBlend mode="normal" in2="BackgroundImageFix" result="effect1_dropShadow_1328_3316"/>
<feBlend mode="normal" in="SourceGraphic" in2="effect1_dropShadow_1328_3316" result="shape"/>
</filter>
<filter id="filter8_d_1328_3316" x="65.3062" y="99.6463" width="60.919" height="45.8079" filterUnits="userSpaceOnUse" color-interpolation-filters="sRGB">
<feFlood flood-opacity="0" result="BackgroundImageFix"/>
<feColorMatrix in="SourceAlpha" type="matrix" values="0 0 0 0 0 0 0 0 0 0 0 0 0 0 0 0 0 0 127 0" result="hardAlpha"/>
<feOffset dy="-1"/>
<feGaussianBlur stdDeviation="9.3"/>
<feComposite in2="hardAlpha" operator="out"/>
<feColorMatrix type="matrix" values="0 0 0 0 0 0 0 0 0 0 0 0 0 0 0 0 0 0 0.3 0"/>
<feBlend mode="normal" in2="BackgroundImageFix" result="effect1_dropShadow_1328_3316"/>
<feBlend mode="normal" in="SourceGraphic" in2="effect1_dropShadow_1328_3316" result="shape"/>
</filter>
<filter id="filter9_i_1328_3316" x="129.569" y="126.645" width="22.8391" height="16.8186" filterUnits="userSpaceOnUse" color-interpolation-filters="sRGB">
<feFlood flood-opacity="0" result="BackgroundImageFix"/>
<feBlend mode="normal" in="SourceGraphic" in2="BackgroundImageFix" result="shape"/>
<feColorMatrix in="SourceAlpha" type="matrix" values="0 0 0 0 0 0 0 0 0 0 0 0 0 0 0 0 0 0 127 0" result="hardAlpha"/>
<feOffset dx="-1" dy="4"/>
<feGaussianBlur stdDeviation="8.1"/>
<feComposite in2="hardAlpha" operator="arithmetic" k2="-1" k3="1"/>
<feColorMatrix type="matrix" values="0 0 0 0 1 0 0 0 0 1 0 0 0 0 1 0 0 0 0.5 0"/>
<feBlend mode="normal" in2="shape" result="effect1_innerShadow_1328_3316"/>
</filter>
<filter id="filter10_i_1328_3316" x="38.8896" y="126.645" width="23.314" height="16.8186" filterUnits="userSpaceOnUse" color-interpolation-filters="sRGB">
<feFlood flood-opacity="0" result="BackgroundImageFix"/>
<feBlend mode="normal" in="SourceGraphic" in2="BackgroundImageFix" result="shape"/>
<feColorMatrix in="SourceAlpha" type="matrix" values="0 0 0 0 0 0 0 0 0 0 0 0 0 0 0 0 0 0 127 0" result="hardAlpha"/>
<feOffset dx="-1" dy="4"/>
<feGaussianBlur stdDeviation="8.1"/>
<feComposite in2="hardAlpha" operator="arithmetic" k2="-1" k3="1"/>
<feColorMatrix type="matrix" values="0 0 0 0 1 0 0 0 0 1 0 0 0 0 1 0 0 0 0.5 0"/>
<feBlend mode="normal" in2="shape" result="effect1_innerShadow_1328_3316"/>
</filter>
<filter id="filter11_i_1328_3316" x="190.091" y="0.500977" width="20.8255" height="38.2261" filterUnits="userSpaceOnUse" color-interpolation-filters="sRGB">
<feFlood flood-opacity="0" result="BackgroundImageFix"/>
<feBlend mode="normal" in="SourceGraphic" in2="BackgroundImageFix" result="shape"/>
<feColorMatrix in="SourceAlpha" type="matrix" values="0 0 0 0 0 0 0 0 0 0 0 0 0 0 0 0 0 0 127 0" result="hardAlpha"/>
<feOffset dx="-0.96271" dy="3.85084"/>
<feGaussianBlur stdDeviation="7.79796"/>
<feComposite in2="hardAlpha" operator="arithmetic" k2="-1" k3="1"/>
<feColorMatrix type="matrix" values="0 0 0 0 1 0 0 0 0 1 0 0 0 0 1 0 0 0 0.25 0"/>
<feBlend mode="normal" in2="shape" result="effect1_innerShadow_1328_3316"/>
</filter>
<filter id="filter12_i_1328_3316" x="173.706" y="21.2271" width="18.3328" height="27.1499" filterUnits="userSpaceOnUse" color-interpolation-filters="sRGB">
<feFlood flood-opacity="0" result="BackgroundImageFix"/>
<feBlend mode="normal" in="SourceGraphic" in2="BackgroundImageFix" result="shape"/>
<feColorMatrix in="SourceAlpha" type="matrix" values="0 0 0 0 0 0 0 0 0 0 0 0 0 0 0 0 0 0 127 0" result="hardAlpha"/>
<feOffset dx="-0.630198" dy="2.52079"/>
<feGaussianBlur stdDeviation="5.1046"/>
<feComposite in2="hardAlpha" operator="arithmetic" k2="-1" k3="1"/>
<feColorMatrix type="matrix" values="0 0 0 0 1 0 0 0 0 1 0 0 0 0 1 0 0 0 0.25 0"/>
<feBlend mode="normal" in2="shape" result="effect1_innerShadow_1328_3316"/>
</filter>
<filter id="filter13_i_1328_3316" x="163.199" y="35.3167" width="16.9652" height="20.6124" filterUnits="userSpaceOnUse" color-interpolation-filters="sRGB">
<feFlood flood-opacity="0" result="BackgroundImageFix"/>
<feBlend mode="normal" in="SourceGraphic" in2="BackgroundImageFix" result="shape"/>
<feColorMatrix in="SourceAlpha" type="matrix" values="0 0 0 0 0 0 0 0 0 0 0 0 0 0 0 0 0 0 127 0" result="hardAlpha"/>
<feOffset dx="-0.465413" dy="1.86165"/>
<feGaussianBlur stdDeviation="3.76984"/>
<feComposite in2="hardAlpha" operator="arithmetic" k2="-1" k3="1"/>
<feColorMatrix type="matrix" values="0 0 0 0 1 0 0 0 0 1 0 0 0 0 1 0 0 0 0.25 0"/>
<feBlend mode="normal" in2="shape" result="effect1_innerShadow_1328_3316"/>
</filter>
<filter id="filter14_i_1328_3316" x="157.001" y="47.0645" width="11.6288" height="14.1289" filterUnits="userSpaceOnUse" color-interpolation-filters="sRGB">
<feFlood flood-opacity="0" result="BackgroundImageFix"/>
<feBlend mode="normal" in="SourceGraphic" in2="BackgroundImageFix" result="shape"/>
<feColorMatrix in="SourceAlpha" type="matrix" values="0 0 0 0 0 0 0 0 0 0 0 0 0 0 0 0 0 0 127 0" result="hardAlpha"/>
<feOffset dx="-0.31902" dy="1.27608"/>
<feGaussianBlur stdDeviation="2.58406"/>
<feComposite in2="hardAlpha" operator="arithmetic" k2="-1" k3="1"/>
<feColorMatrix type="matrix" values="0 0 0 0 1 0 0 0 0 1 0 0 0 0 1 0 0 0 0.25 0"/>
<feBlend mode="normal" in2="shape" result="effect1_innerShadow_1328_3316"/>
</filter>
<linearGradient id="paint0_linear_1328_3316" x1="89.0291" y1="10.9837" x2="81.7536" y2="40.289" gradientUnits="userSpaceOnUse">
<stop stop-color="white"/>
<stop offset="1" stop-color="#D1D9DE"/>
</linearGradient>
<linearGradient id="paint1_linear_1328_3316" x1="89.0291" y1="10.9837" x2="81.7536" y2="40.289" gradientUnits="userSpaceOnUse">
<stop stop-color="white"/>
<stop offset="1" stop-color="#D1D9DE"/>
</linearGradient>
<linearGradient id="paint2_linear_1328_3316" x1="89.0291" y1="10.9837" x2="81.7536" y2="40.289" gradientUnits="userSpaceOnUse">
<stop stop-color="white"/>
<stop offset="1" stop-color="#D1D9DE"/>
</linearGradient>
<linearGradient id="paint3_linear_1328_3316" x1="89.0291" y1="10.9837" x2="81.7536" y2="40.289" gradientUnits="userSpaceOnUse">
<stop stop-color="white"/>
<stop offset="1" stop-color="#D1D9DE"/>
</linearGradient>
<linearGradient id="paint4_linear_1328_3316" x1="95.7183" y1="31.0525" x2="-25.0094" y2="154.263" gradientUnits="userSpaceOnUse">
<stop stop-color="white"/>
<stop offset="1" stop-color="#D1D9DE"/>
</linearGradient>
<linearGradient id="paint5_linear_1328_3316" x1="127.093" y1="86.4145" x2="83.0719" y2="121.937" gradientUnits="userSpaceOnUse">
<stop stop-color="white"/>
<stop offset="1" stop-color="#D1D9DE"/>
</linearGradient>
<linearGradient id="paint6_linear_1328_3316" x1="127.093" y1="86.4145" x2="83.0719" y2="121.937" gradientUnits="userSpaceOnUse">
<stop stop-color="white"/>
<stop offset="1" stop-color="#D1D9DE"/>
</linearGradient>
<linearGradient id="paint7_linear_1328_3316" x1="137.958" y1="83.8589" x2="95.8431" y2="123.421" gradientUnits="userSpaceOnUse">
<stop stop-color="white"/>
<stop offset="1" stop-color="#D1D9DE"/>
</linearGradient>
<linearGradient id="paint8_linear_1328_3316" x1="64.4925" y1="86.4565" x2="20.4716" y2="121.979" gradientUnits="userSpaceOnUse">
<stop stop-color="white"/>
<stop offset="1" stop-color="#D1D9DE"/>
</linearGradient>
<linearGradient id="paint9_linear_1328_3316" x1="64.4925" y1="86.4565" x2="20.4716" y2="121.979" gradientUnits="userSpaceOnUse">
<stop stop-color="white"/>
<stop offset="1" stop-color="#D1D9DE"/>
</linearGradient>
<linearGradient id="paint10_linear_1328_3316" x1="66.4492" y1="80.581" x2="44.3905" y2="133.987" gradientUnits="userSpaceOnUse">
<stop stop-color="white"/>
<stop offset="1" stop-color="#D1D9DE"/>
</linearGradient>
<linearGradient id="paint11_linear_1328_3316" x1="96.576" y1="116.342" x2="60.5661" y2="202.056" gradientUnits="userSpaceOnUse">
<stop stop-color="white"/>
<stop offset="1" stop-color="#D1D9DE"/>
</linearGradient>
<linearGradient id="paint12_linear_1328_3316" x1="95.7657" y1="119.246" x2="83.6726" y2="130.962" gradientUnits="userSpaceOnUse">
<stop stop-color="#FFD569"/>
<stop offset="1" stop-color="#E29F3A"/>
</linearGradient>
<linearGradient id="paint13_linear_1328_3316" x1="64.6302" y1="71.0003" x2="64.6302" y2="76.8406" gradientUnits="userSpaceOnUse">
<stop/>
<stop offset="1" stop-color="#666666"/>
</linearGradient>
<linearGradient id="paint14_linear_1328_3316" x1="129.01" y1="71.5264" x2="129.01" y2="77.3667" gradientUnits="userSpaceOnUse">
<stop/>
<stop offset="1" stop-color="#666666"/>
</linearGradient>
</defs>
</svg>
