<svg width="322" height="351" viewBox="0 0 322 351" fill="none" xmlns="http://www.w3.org/2000/svg">
<g filter="url(#filter0_d_866_1465)">
<path d="M182.941 141.609C182.941 141.609 182.946 141.61 182.95 141.61C188.631 142.089 194.095 140.979 199.476 139.502C211.252 136.271 222.001 131.05 231.366 123.31C236.472 119.094 240.849 114.257 243.202 108.022C247.186 97.465 242.981 85.9438 231.92 81.7734C225.475 79.3418 219.218 80.4053 213.34 83.7408C210.534 85.3326 207.786 87.0269 204.943 88.557C198.695 91.9179 191.994 92.8205 184.967 91.7465C181.825 91.264 179.125 92.0447 177.138 94.3865C173.3 98.9149 175.704 105.733 181.464 107.53C183.751 108.245 188.644 112.212 188.214 116.456C187.784 120.701 186.225 123.783 179.464 125.09C174.681 126.018 171.85 129.763 172.472 134.322C172.981 138.077 175.582 139.892 178.96 140.906C180.242 141.283 181.61 141.383 182.941 141.609Z" fill="url(#paint0_linear_866_1465)"/>
<path d="M178.304 69.1125C179.147 60.787 186.58 54.721 194.905 55.5639C203.231 56.4067 209.297 63.8391 208.454 72.1647C207.611 80.4902 200.179 86.5561 191.853 85.7133C183.527 84.8705 177.462 77.438 178.304 69.1125Z" fill="url(#paint1_linear_866_1465)"/>
<path d="M182.941 141.609C182.941 141.609 182.946 141.61 182.95 141.61C188.631 142.089 194.095 140.979 199.476 139.502C211.252 136.271 222.001 131.05 231.366 123.31C236.472 119.094 240.849 114.257 243.202 108.022C247.186 97.465 242.981 85.9438 231.92 81.7734C225.475 79.3418 219.218 80.4053 213.34 83.7408C210.534 85.3326 207.786 87.0269 204.943 88.557C198.695 91.9179 191.994 92.8205 184.967 91.7465C181.825 91.264 179.125 92.0447 177.138 94.3865C173.3 98.9149 175.704 105.733 181.464 107.53C183.751 108.245 188.644 112.212 188.214 116.456C187.784 120.701 186.225 123.783 179.464 125.09C174.681 126.018 171.85 129.763 172.472 134.322C172.981 138.077 175.582 139.892 178.96 140.906C180.242 141.283 181.61 141.383 182.941 141.609Z" fill="url(#paint2_linear_866_1465)"/>
<path d="M178.304 69.1125C179.147 60.787 186.58 54.721 194.905 55.5639C203.231 56.4067 209.297 63.8391 208.454 72.1647C207.611 80.4902 200.179 86.5561 191.853 85.7133C183.527 84.8705 177.462 77.438 178.304 69.1125Z" fill="url(#paint3_linear_866_1465)"/>
</g>
<g filter="url(#filter1_d_866_1465)">
<path d="M66.9341 252.346C66.9341 252.346 49.6778 256.065 48.0135 267.26C46.3492 278.456 91.5696 275.749 91.2866 275.016C91.0037 274.283 95.0013 274.586 92.9064 263.106C90.8116 251.625 66.9341 252.346 66.9341 252.346Z" fill="url(#paint4_linear_866_1465)"/>
</g>
<g filter="url(#filter2_i_866_1465)">
<path d="M56.2324 271.638C56.2419 271.568 56.2671 271.487 56.2905 271.419C56.329 271.24 56.1857 271.773 56.2829 271.475C56.3297 271.339 56.3625 271.202 56.4213 271.083C56.5148 270.812 56.638 270.531 56.7714 270.28C56.7929 270.226 56.9553 269.866 56.9831 269.869C56.9553 269.866 56.8023 270.157 56.9635 269.909C57.0008 269.843 57.052 269.78 57.0893 269.714C57.2505 269.466 57.4237 269.235 57.6108 269.005C57.6955 268.903 57.796 268.79 57.8807 268.688C57.9319 268.624 57.9812 268.574 58.0445 268.526C58.1273 268.438 58.2759 268.387 58.0128 268.55C58.2462 268.397 58.4491 268.156 58.6862 267.975C58.9233 267.795 59.1724 267.63 59.4196 267.48C59.6371 267.339 59.2356 267.582 59.388 267.504C59.4632 267.472 59.5246 267.437 59.5878 267.389C59.7244 267.323 59.861 267.256 60.0115 267.192C60.6906 266.887 61.102 266.051 60.7735 265.34C60.445 264.629 59.6461 264.251 58.9215 264.578C56.1178 265.812 54.1189 268.318 53.4338 271.271C53.2639 271.999 53.9346 272.799 54.648 272.868C55.4746 272.938 56.0531 272.435 56.2444 271.654L56.2324 271.638Z" fill="#1D1D1D"/>
</g>
<g filter="url(#filter3_d_866_1465)">
<path d="M144.497 299.55C144.497 299.55 147.92 316.867 138.299 322.831C128.679 328.795 113.25 286.202 114.035 286.171C114.82 286.141 112.958 282.59 124.329 279.965C135.7 277.341 144.497 299.55 144.497 299.55Z" fill="url(#paint5_linear_866_1465)"/>
</g>
<g filter="url(#filter4_i_866_1465)">
<path d="M126.531 297.789C126.26 298.346 125.958 298.905 125.634 299.428C125.461 299.713 125.281 299.985 125.089 300.265C125.055 300.318 124.839 300.612 125.01 300.378C124.914 300.518 124.81 300.646 124.707 300.774C123.941 301.761 123.081 302.673 122.131 303.491C121.571 303.976 121.648 305.029 122.188 305.49C122.811 306.033 123.586 305.959 124.187 305.433C126.192 303.699 127.854 301.533 129.007 299.149C129.326 298.481 129.148 297.588 128.439 297.229C127.784 296.902 126.871 297.075 126.519 297.796L126.531 297.789Z" fill="#1D1D1D"/>
</g>
<g filter="url(#filter5_i_866_1465)">
<path d="M133.758 307.926C133.812 308.369 133.835 308.815 133.807 309.258C133.797 309.46 133.781 309.651 133.76 309.86C133.786 309.549 133.748 309.949 133.743 309.969C133.719 310.065 133.715 310.166 133.691 310.263C133.617 310.684 133.517 311.089 133.397 311.489C133.332 311.708 133.261 311.915 133.189 312.123C133.153 312.226 133.122 312.311 133.086 312.414C132.94 312.798 133.199 312.166 133.045 312.537C132.35 314.186 131.458 315.724 130.519 317.241C130.128 317.87 130.431 318.835 131.087 319.161C131.808 319.514 132.582 319.276 133.007 318.594C134.978 315.389 137.017 311.782 136.595 307.872C136.511 307.136 135.97 306.429 135.161 306.474C134.466 306.516 133.682 307.12 133.763 307.907L133.758 307.926Z" fill="#1D1D1D"/>
</g>
<g filter="url(#filter6_d_866_1465)">
<path d="M200.119 285.457C201.032 286.561 201.468 287.983 201.332 289.41C201.196 290.836 200.499 292.151 199.394 293.063C198.947 293.41 198.462 293.707 197.949 293.949C189.808 297.041 180.901 297.499 172.486 295.257C164.071 293.017 156.572 288.189 151.048 281.457C145.523 274.725 142.252 266.428 141.697 257.737C141.141 249.046 143.328 240.4 147.95 233.019C148.694 231.823 149.879 230.966 151.249 230.636C152.618 230.305 154.063 230.526 155.271 231.252C155.814 231.553 156.284 231.97 156.65 232.472L200.119 285.457Z" fill="url(#paint6_linear_866_1465)"/>
</g>
<g filter="url(#filter7_i_866_1465)">
<path d="M186.278 284.276C183.927 285.401 181.566 286.52 179.221 287.635C178.64 287.91 178.428 288.75 178.754 289.29C179.12 289.882 179.796 290.041 180.41 289.757C182.761 288.632 185.122 287.513 187.467 286.399C188.047 286.124 188.26 285.284 187.933 284.743C187.567 284.151 186.891 283.993 186.278 284.276Z" fill="#1D1D1D"/>
<path d="M185.515 290.638C185.422 287.647 185.128 284.665 184.659 281.72C184.564 281.119 183.879 280.76 183.334 280.832C182.788 280.904 182.219 281.423 182.27 282.026C182.503 284.539 182.742 287.042 182.986 289.561L183.092 290.644C183.153 291.281 183.61 291.884 184.309 291.861C184.911 291.836 185.588 291.324 185.525 290.644C185.292 288.131 185.053 285.628 184.81 283.109L184.703 282.026L182.315 282.332C182.368 282.671 182.426 283.026 182.473 283.375C182.499 283.544 182.52 283.724 182.546 283.893C182.551 283.98 182.573 284.063 182.578 284.15C182.576 284.177 182.603 284.346 182.589 284.226C182.677 284.935 182.759 285.654 182.824 286.377C182.957 287.797 183.036 289.213 183.088 290.628C183.111 291.256 183.632 291.87 184.305 291.844C184.977 291.818 185.54 291.31 185.521 290.627L185.515 290.638Z" fill="#1D1D1D"/>
</g>
<g filter="url(#filter8_d_866_1465)">
<path d="M42.2882 200.565C40.8625 200.421 39.4385 200.851 38.329 201.757C37.2195 202.664 36.5156 203.975 36.3722 205.401C36.3333 205.966 36.3565 206.534 36.4409 207.095C38.4041 215.579 42.9815 223.233 49.5277 228.976C56.0736 234.72 64.2583 238.262 72.9263 239.104C81.5943 239.946 90.3072 238.045 97.8365 233.669C105.366 229.293 111.331 222.663 114.89 214.714C115.47 213.431 115.522 211.97 115.034 210.648C114.547 209.325 113.558 208.249 112.283 207.649C111.731 207.366 111.123 207.207 110.502 207.182L42.2882 200.565Z" fill="url(#paint7_linear_866_1465)"/>
</g>
<g filter="url(#filter9_i_866_1465)">
<path d="M50.9739 211.407C51.3479 213.986 51.7327 216.571 52.112 219.139C52.2067 219.774 51.6272 220.418 50.9964 220.448C50.3008 220.474 49.7928 220 49.6869 219.333C49.3129 216.754 48.928 214.169 48.5487 211.601C48.454 210.965 49.0335 210.321 49.6643 210.291C50.3599 210.266 50.8679 210.739 50.9739 211.407Z" fill="#1D1D1D"/>
<path d="M46.114 215.582C48.6502 213.994 51.2911 212.578 53.9989 211.329C54.5512 211.073 55.2305 211.442 55.4744 211.935C55.7182 212.428 55.6043 213.19 55.074 213.483C52.8565 214.689 50.6443 215.883 48.4159 217.083L47.457 217.598C46.8946 217.902 46.1387 217.858 45.7694 217.264C45.4551 216.75 45.5032 215.903 46.1031 215.577C48.3207 214.371 50.5329 213.177 52.7613 211.976L53.7202 211.462L54.7953 213.616C54.4843 213.761 54.1572 213.911 53.8409 214.066C53.6854 214.138 53.5247 214.221 53.3692 214.294C53.2943 214.338 53.2137 214.366 53.1388 214.41C53.1174 214.426 52.9619 214.499 53.0691 214.443C52.4313 214.764 51.7883 215.097 51.151 215.445C49.8976 216.125 48.6771 216.848 47.4731 217.592C46.938 217.923 46.1384 217.831 45.7855 217.259C45.4327 216.686 45.5414 215.935 46.1193 215.571L46.114 215.582Z" fill="#1D1D1D"/>
</g>
<g filter="url(#filter10_d_866_1465)">
<path d="M91.0742 221.241C91.0742 221.241 47.6189 250.783 103.642 281.404C159.665 312.025 155.759 259.709 155.759 259.709L91.6914 220.203" fill="url(#paint8_linear_866_1465)"/>
</g>
<g filter="url(#filter11_ii_866_1465)">
<circle cx="118.142" cy="257.688" r="12.6379" transform="rotate(30.7397 118.142 257.688)" fill="url(#paint9_linear_866_1465)"/>
</g>
<g filter="url(#filter12_i_866_1465)">
<path d="M109.555 258.99L109.556 258.988C110.149 258.051 110.954 257.328 111.804 256.661C113.664 255.2 115.702 254.125 117.954 253.553C119.182 253.241 120.417 253.113 121.624 253.459C123.668 254.044 124.898 256.013 124.228 258.207C123.838 259.486 122.947 260.337 121.761 260.87C121.195 261.125 120.62 261.358 120.059 261.625C118.826 262.213 117.907 263.151 117.246 264.365C116.95 264.909 116.518 265.239 115.935 265.281C114.81 265.36 114.072 264.209 114.477 263.108C114.637 262.671 114.617 261.459 113.932 261.041C113.247 260.623 112.604 260.514 111.618 261.415C110.92 262.053 110.029 262.065 109.42 261.448C108.918 260.94 108.951 260.329 109.195 259.688C109.288 259.446 109.433 259.222 109.555 258.99Z" fill="black"/>
</g>
<g filter="url(#filter13_d_866_1465)">
<path d="M207.748 99.4926C161.136 71.773 101.398 86.2289 74.3188 131.764C63.2227 150.422 59.3484 171.402 61.8131 191.575C107.589 215.351 151.138 244.743 194.677 272.359C214.34 265.063 231.636 251.392 243.09 232.131C270.17 186.596 254.341 127.217 207.729 99.4973L207.748 99.4926Z" fill="url(#paint10_linear_866_1465)"/>
</g>
<g filter="url(#filter14_d_866_1465)">
<path d="M176.44 230.678C190.184 238.852 207.952 234.336 216.125 220.592C224.299 206.848 219.783 189.081 206.039 180.907C192.295 172.734 174.527 177.249 166.354 190.993C158.18 204.737 162.696 222.505 176.44 230.678Z" fill="url(#paint11_linear_866_1465)"/>
</g>
<mask id="mask0_866_1465" style="mask-type:alpha" maskUnits="userSpaceOnUse" x="162" y="176" width="59" height="59">
<path d="M176.44 230.678C190.184 238.852 207.952 234.336 216.125 220.592C224.299 206.848 219.783 189.081 206.039 180.907C192.295 172.734 174.527 177.249 166.354 190.993C158.18 204.737 162.696 222.505 176.44 230.678Z" fill="url(#paint12_linear_866_1465)"/>
</mask>
<g mask="url(#mask0_866_1465)">
<g filter="url(#filter15_i_866_1465)">
<path d="M195.436 199.232C194.648 198.607 194.457 197.506 194.927 196.611C200.711 185.541 186.474 172.516 175.887 180.149C175.894 180.137 175.908 180.114 175.915 180.102C157.536 189.667 157.78 217.42 175.962 226.947C194.143 237.713 211.104 211.668 195.448 199.239L195.436 199.232Z" fill="black"/>
</g>
</g>
<g filter="url(#filter16_d_866_1465)">
<path d="M107.554 189.776C121.298 197.949 139.066 193.433 147.24 179.689C155.413 165.945 150.897 148.178 137.153 140.004C123.409 131.831 105.642 136.347 97.4682 150.091C89.2947 163.835 93.8105 181.602 107.554 189.776Z" fill="url(#paint13_linear_866_1465)"/>
</g>
<mask id="mask1_866_1465" style="mask-type:alpha" maskUnits="userSpaceOnUse" x="93" y="135" width="59" height="59">
<path d="M107.554 189.776C121.298 197.949 139.066 193.433 147.24 179.689C155.413 165.945 150.897 148.178 137.153 140.004C123.409 131.831 105.642 136.347 97.4682 150.091C89.2947 163.835 93.8105 181.602 107.554 189.776Z" fill="url(#paint14_linear_866_1465)"/>
</mask>
<g mask="url(#mask1_866_1465)">
<g filter="url(#filter17_i_866_1465)">
<path d="M126.243 158.085C127.168 158.478 128.227 158.121 128.79 157.28C135.754 146.913 153.997 153.202 152.345 166.149C152.352 166.138 152.366 166.115 152.373 166.103C152.745 186.818 128.243 199.855 111.19 188.429C93.05 177.594 107.835 150.256 126.232 158.078L126.243 158.085Z" fill="black"/>
</g>
</g>
<g filter="url(#filter18_d_866_1465)">
<path d="M209.548 276.126C214.385 273.973 218.632 270.388 221.543 265.492C229.019 252.922 224.891 236.679 212.32 229.203C204.264 224.413 194.712 224.404 186.914 228.321C176.374 219.17 163.342 209.759 148.642 201.017C133.942 192.275 119.45 185.318 106.37 180.438C106.082 171.727 101.52 163.327 93.4639 158.536C80.8937 151.06 64.6505 155.189 57.1751 167.759C54.2497 172.678 53.1255 178.152 53.5665 183.443C53.5971 185.342 54.0255 187.414 54.8403 189.653C55.5228 191.72 56.4659 193.691 57.6533 195.541C66.6452 211.089 89.7454 231.736 119.77 249.592C149.795 267.447 179.085 277.924 197.022 278.376C199.15 278.513 201.272 278.396 203.352 278.035C205.768 277.686 207.849 277.059 209.552 276.145L209.548 276.126Z" fill="url(#paint15_linear_866_1465)"/>
</g>
<path d="M135.206 197.53C135.206 197.53 126.359 216.212 134.928 221.307C143.496 226.403 156.248 210.044 156.248 210.044L147.873 200.791L135.206 197.53Z" fill="url(#paint16_linear_866_1465)"/>
<mask id="mask2_866_1465" style="mask-type:alpha" maskUnits="userSpaceOnUse" x="131" y="197" width="26" height="26">
<path d="M135.206 197.53C135.206 197.53 126.359 216.212 134.928 221.307C143.496 226.403 156.248 210.044 156.248 210.044L147.873 200.791L135.206 197.53Z" fill="#C2454C"/>
</mask>
<g mask="url(#mask2_866_1465)">
<g filter="url(#filter19_i_866_1465)">
<path d="M145.481 220.585C145.828 217.948 144.626 215.238 142.195 213.792C138.95 211.863 134.747 212.922 132.811 216.177C132.196 217.211 131.913 218.338 131.882 219.467C132.473 220.577 133.304 221.533 134.47 222.226C137.836 224.228 141.845 222.92 145.481 220.585Z" fill="#FF6A5F"/>
</g>
</g>
<g filter="url(#filter20_d_866_1465)">
<path d="M144.475 205.996C151.679 210.281 158.78 211.634 160.335 209.02C161.89 206.405 157.31 200.813 150.105 196.528C142.901 192.244 135.8 190.89 134.245 193.505C132.69 196.119 137.27 201.712 144.475 205.996Z" fill="url(#paint17_linear_866_1465)"/>
</g>
<path fill-rule="evenodd" clip-rule="evenodd" d="M157.474 126.389C156.604 128.323 154.33 129.184 152.397 128.313C148.484 126.551 144.62 126.128 141.692 126.162C140.236 126.179 139.04 126.309 138.227 126.431C137.822 126.491 137.515 126.549 137.322 126.589C137.226 126.608 137.158 126.624 137.121 126.632L137.09 126.639C135.04 127.152 132.96 125.91 132.439 123.86C131.916 121.805 133.159 119.716 135.214 119.194L136.16 122.915C135.214 119.194 135.215 119.193 135.216 119.193L135.219 119.192L135.226 119.191L135.241 119.187L135.28 119.177C135.311 119.17 135.35 119.161 135.398 119.15C135.492 119.128 135.621 119.099 135.78 119.067C136.098 119.002 136.541 118.919 137.093 118.836C138.196 118.672 139.744 118.506 141.601 118.484C145.3 118.441 150.343 118.967 155.55 121.312C157.484 122.183 158.345 124.456 157.474 126.389ZM137.089 126.64C137.088 126.64 137.088 126.64 137.089 126.64L137.089 126.64Z" fill="url(#paint18_linear_866_1465)"/>
<path fill-rule="evenodd" clip-rule="evenodd" d="M207.393 156.86C208.676 155.171 211.085 154.843 212.773 156.126C217.32 159.581 220.19 163.761 221.918 167.032C222.786 168.674 223.379 170.114 223.761 171.161C223.952 171.685 224.091 172.114 224.186 172.425C224.233 172.58 224.269 172.706 224.295 172.8C224.308 172.847 224.319 172.886 224.327 172.917L224.338 172.956L224.341 172.971L224.343 172.977L224.344 172.98C224.344 172.982 224.344 172.983 220.623 173.929L224.344 172.983C224.867 175.038 223.624 177.127 221.569 177.65C219.519 178.171 217.435 176.935 216.906 174.889L216.898 174.859C216.888 174.822 216.869 174.755 216.84 174.661C216.783 174.473 216.687 174.176 216.547 173.791C216.265 173.018 215.809 171.906 215.128 170.619C213.761 168.029 211.544 164.836 208.127 162.239C206.439 160.956 206.11 158.548 207.393 156.86Z" fill="url(#paint19_linear_866_1465)"/>
<g filter="url(#filter21_i_866_1465)">
<path d="M187.172 248.675C193.805 252.62 201.06 252.661 203.375 248.768C205.691 244.874 202.19 238.52 195.557 234.575C188.923 230.63 181.669 230.589 179.353 234.482C177.038 238.376 180.538 244.73 187.172 248.675Z" fill="#FF6A5F"/>
</g>
<g filter="url(#filter22_i_866_1465)">
<path d="M87.6916 189.514C94.4693 193.545 101.841 193.656 104.156 189.762C106.472 185.869 102.854 179.445 96.0767 175.414C89.299 171.384 81.9276 171.273 79.6122 175.166C77.2967 179.06 80.914 185.483 87.6916 189.514Z" fill="#FF6A5F"/>
</g>
<defs>
<filter id="filter0_d_866_1465" x="153.787" y="35.8857" width="109.488" height="123.437" filterUnits="userSpaceOnUse" color-interpolation-filters="sRGB">
<feFlood flood-opacity="0" result="BackgroundImageFix"/>
<feColorMatrix in="SourceAlpha" type="matrix" values="0 0 0 0 0 0 0 0 0 0 0 0 0 0 0 0 0 0 127 0" result="hardAlpha"/>
<feOffset dy="-1"/>
<feGaussianBlur stdDeviation="9.3"/>
<feComposite in2="hardAlpha" operator="out"/>
<feColorMatrix type="matrix" values="0 0 0 0 0 0 0 0 0 0 0 0 0 0 0 0 0 0 0.1 0"/>
<feBlend mode="normal" in2="BackgroundImageFix" result="effect1_dropShadow_866_1465"/>
<feBlend mode="normal" in="SourceGraphic" in2="effect1_dropShadow_866_1465" result="shape"/>
</filter>
<filter id="filter1_d_866_1465" x="29.3687" y="232.737" width="82.7479" height="60.6991" filterUnits="userSpaceOnUse" color-interpolation-filters="sRGB">
<feFlood flood-opacity="0" result="BackgroundImageFix"/>
<feColorMatrix in="SourceAlpha" type="matrix" values="0 0 0 0 0 0 0 0 0 0 0 0 0 0 0 0 0 0 127 0" result="hardAlpha"/>
<feOffset dy="-1"/>
<feGaussianBlur stdDeviation="9.3"/>
<feComposite in2="hardAlpha" operator="out"/>
<feColorMatrix type="matrix" values="0 0 0 0 0 0 0 0 0 0 0 0 0 0 0 0 0 0 0.3 0"/>
<feBlend mode="normal" in2="BackgroundImageFix" result="effect1_dropShadow_866_1465"/>
<feBlend mode="normal" in="SourceGraphic" in2="effect1_dropShadow_866_1465" result="shape"/>
</filter>
<filter id="filter2_i_866_1465" x="53.4072" y="264.459" width="7.48145" height="9.41516" filterUnits="userSpaceOnUse" color-interpolation-filters="sRGB">
<feFlood flood-opacity="0" result="BackgroundImageFix"/>
<feBlend mode="normal" in="SourceGraphic" in2="BackgroundImageFix" result="shape"/>
<feColorMatrix in="SourceAlpha" type="matrix" values="0 0 0 0 0 0 0 0 0 0 0 0 0 0 0 0 0 0 127 0" result="hardAlpha"/>
<feOffset dy="1"/>
<feGaussianBlur stdDeviation="1.65"/>
<feComposite in2="hardAlpha" operator="arithmetic" k2="-1" k3="1"/>
<feColorMatrix type="matrix" values="0 0 0 0 1 0 0 0 0 1 0 0 0 0 1 0 0 0 0.5 0"/>
<feBlend mode="normal" in2="shape" result="effect1_innerShadow_866_1465"/>
</filter>
<filter id="filter3_d_866_1465" x="95.4059" y="260.15" width="68.283" height="80.8537" filterUnits="userSpaceOnUse" color-interpolation-filters="sRGB">
<feFlood flood-opacity="0" result="BackgroundImageFix"/>
<feColorMatrix in="SourceAlpha" type="matrix" values="0 0 0 0 0 0 0 0 0 0 0 0 0 0 0 0 0 0 127 0" result="hardAlpha"/>
<feOffset dy="-1"/>
<feGaussianBlur stdDeviation="9.3"/>
<feComposite in2="hardAlpha" operator="out"/>
<feColorMatrix type="matrix" values="0 0 0 0 0 0 0 0 0 0 0 0 0 0 0 0 0 0 0.3 0"/>
<feBlend mode="normal" in2="BackgroundImageFix" result="effect1_dropShadow_866_1465"/>
<feBlend mode="normal" in="SourceGraphic" in2="effect1_dropShadow_866_1465" result="shape"/>
</filter>
<filter id="filter4_i_866_1465" x="121.745" y="297.07" width="7.41406" height="9.79321" filterUnits="userSpaceOnUse" color-interpolation-filters="sRGB">
<feFlood flood-opacity="0" result="BackgroundImageFix"/>
<feBlend mode="normal" in="SourceGraphic" in2="BackgroundImageFix" result="shape"/>
<feColorMatrix in="SourceAlpha" type="matrix" values="0 0 0 0 0 0 0 0 0 0 0 0 0 0 0 0 0 0 127 0" result="hardAlpha"/>
<feOffset dy="1"/>
<feGaussianBlur stdDeviation="1.65"/>
<feComposite in2="hardAlpha" operator="arithmetic" k2="-1" k3="1"/>
<feColorMatrix type="matrix" values="0 0 0 0 1 0 0 0 0 1 0 0 0 0 1 0 0 0 0.5 0"/>
<feBlend mode="normal" in2="shape" result="effect1_innerShadow_866_1465"/>
</filter>
<filter id="filter5_i_866_1465" x="130.346" y="306.472" width="6.30469" height="13.8518" filterUnits="userSpaceOnUse" color-interpolation-filters="sRGB">
<feFlood flood-opacity="0" result="BackgroundImageFix"/>
<feBlend mode="normal" in="SourceGraphic" in2="BackgroundImageFix" result="shape"/>
<feColorMatrix in="SourceAlpha" type="matrix" values="0 0 0 0 0 0 0 0 0 0 0 0 0 0 0 0 0 0 127 0" result="hardAlpha"/>
<feOffset dy="1"/>
<feGaussianBlur stdDeviation="1.65"/>
<feComposite in2="hardAlpha" operator="arithmetic" k2="-1" k3="1"/>
<feColorMatrix type="matrix" values="0 0 0 0 1 0 0 0 0 1 0 0 0 0 1 0 0 0 0.5 0"/>
<feBlend mode="normal" in2="shape" result="effect1_innerShadow_866_1465"/>
</filter>
<filter id="filter6_d_866_1465" x="123.011" y="210.886" width="96.9451" height="103.373" filterUnits="userSpaceOnUse" color-interpolation-filters="sRGB">
<feFlood flood-opacity="0" result="BackgroundImageFix"/>
<feColorMatrix in="SourceAlpha" type="matrix" values="0 0 0 0 0 0 0 0 0 0 0 0 0 0 0 0 0 0 127 0" result="hardAlpha"/>
<feOffset dy="-1"/>
<feGaussianBlur stdDeviation="9.3"/>
<feComposite in2="hardAlpha" operator="out"/>
<feColorMatrix type="matrix" values="0 0 0 0 0 0 0 0 0 0 0 0 0 0 0 0 0 0 0.1 0"/>
<feBlend mode="normal" in2="BackgroundImageFix" result="effect1_dropShadow_866_1465"/>
<feBlend mode="normal" in="SourceGraphic" in2="effect1_dropShadow_866_1465" result="shape"/>
</filter>
<filter id="filter7_i_866_1465" x="178.601" y="280.823" width="9.48633" height="12.0386" filterUnits="userSpaceOnUse" color-interpolation-filters="sRGB">
<feFlood flood-opacity="0" result="BackgroundImageFix"/>
<feBlend mode="normal" in="SourceGraphic" in2="BackgroundImageFix" result="shape"/>
<feColorMatrix in="SourceAlpha" type="matrix" values="0 0 0 0 0 0 0 0 0 0 0 0 0 0 0 0 0 0 127 0" result="hardAlpha"/>
<feOffset dy="1"/>
<feGaussianBlur stdDeviation="1.65"/>
<feComposite in2="hardAlpha" operator="arithmetic" k2="-1" k3="1"/>
<feColorMatrix type="matrix" values="0 0 0 0 1 0 0 0 0 1 0 0 0 0 1 0 0 0 0.5 0"/>
<feBlend mode="normal" in2="shape" result="effect1_innerShadow_866_1465"/>
</filter>
<filter id="filter8_d_866_1465" x="17.7535" y="180.938" width="116.213" height="75.9612" filterUnits="userSpaceOnUse" color-interpolation-filters="sRGB">
<feFlood flood-opacity="0" result="BackgroundImageFix"/>
<feColorMatrix in="SourceAlpha" type="matrix" values="0 0 0 0 0 0 0 0 0 0 0 0 0 0 0 0 0 0 127 0" result="hardAlpha"/>
<feOffset dy="-1"/>
<feGaussianBlur stdDeviation="9.3"/>
<feComposite in2="hardAlpha" operator="out"/>
<feColorMatrix type="matrix" values="0 0 0 0 0 0 0 0 0 0 0 0 0 0 0 0 0 0 0.1 0"/>
<feBlend mode="normal" in2="BackgroundImageFix" result="effect1_dropShadow_866_1465"/>
<feBlend mode="normal" in="SourceGraphic" in2="effect1_dropShadow_866_1465" result="shape"/>
</filter>
<filter id="filter9_i_866_1465" x="45.5781" y="210.29" width="10.0186" height="11.1591" filterUnits="userSpaceOnUse" color-interpolation-filters="sRGB">
<feFlood flood-opacity="0" result="BackgroundImageFix"/>
<feBlend mode="normal" in="SourceGraphic" in2="BackgroundImageFix" result="shape"/>
<feColorMatrix in="SourceAlpha" type="matrix" values="0 0 0 0 0 0 0 0 0 0 0 0 0 0 0 0 0 0 127 0" result="hardAlpha"/>
<feOffset dy="1"/>
<feGaussianBlur stdDeviation="1.65"/>
<feComposite in2="hardAlpha" operator="arithmetic" k2="-1" k3="1"/>
<feColorMatrix type="matrix" values="0 0 0 0 1 0 0 0 0 1 0 0 0 0 1 0 0 0 0.5 0"/>
<feBlend mode="normal" in2="shape" result="effect1_innerShadow_866_1465"/>
</filter>
<filter id="filter10_d_866_1465" x="56.4078" y="200.603" width="118.01" height="108.014" filterUnits="userSpaceOnUse" color-interpolation-filters="sRGB">
<feFlood flood-opacity="0" result="BackgroundImageFix"/>
<feColorMatrix in="SourceAlpha" type="matrix" values="0 0 0 0 0 0 0 0 0 0 0 0 0 0 0 0 0 0 127 0" result="hardAlpha"/>
<feOffset dy="-1"/>
<feGaussianBlur stdDeviation="9.3"/>
<feComposite in2="hardAlpha" operator="out"/>
<feColorMatrix type="matrix" values="0 0 0 0 0 0 0 0 0 0 0 0 0 0 0 0 0 0 0.1 0"/>
<feBlend mode="normal" in2="BackgroundImageFix" result="effect1_dropShadow_866_1465"/>
<feBlend mode="normal" in="SourceGraphic" in2="effect1_dropShadow_866_1465" result="shape"/>
</filter>
<filter id="filter11_ii_866_1465" x="105.502" y="244.048" width="25.2793" height="29.2795" filterUnits="userSpaceOnUse" color-interpolation-filters="sRGB">
<feFlood flood-opacity="0" result="BackgroundImageFix"/>
<feBlend mode="normal" in="SourceGraphic" in2="BackgroundImageFix" result="shape"/>
<feColorMatrix in="SourceAlpha" type="matrix" values="0 0 0 0 0 0 0 0 0 0 0 0 0 0 0 0 0 0 127 0" result="hardAlpha"/>
<feOffset dy="-1"/>
<feGaussianBlur stdDeviation="9.55"/>
<feComposite in2="hardAlpha" operator="arithmetic" k2="-1" k3="1"/>
<feColorMatrix type="matrix" values="0 0 0 0 1 0 0 0 0 1 0 0 0 0 1 0 0 0 0.3 0"/>
<feBlend mode="normal" in2="shape" result="effect1_innerShadow_866_1465"/>
<feColorMatrix in="SourceAlpha" type="matrix" values="0 0 0 0 0 0 0 0 0 0 0 0 0 0 0 0 0 0 127 0" result="hardAlpha"/>
<feOffset dy="3"/>
<feGaussianBlur stdDeviation="3.25"/>
<feComposite in2="hardAlpha" operator="arithmetic" k2="-1" k3="1"/>
<feColorMatrix type="matrix" values="0 0 0 0 1 0 0 0 0 0.533333 0 0 0 0 0.498039 0 0 0 0.3 0"/>
<feBlend mode="normal" in2="effect1_innerShadow_866_1465" result="effect2_innerShadow_866_1465"/>
</filter>
<filter id="filter12_i_866_1465" x="108.023" y="253.252" width="16.3887" height="13.0325" filterUnits="userSpaceOnUse" color-interpolation-filters="sRGB">
<feFlood flood-opacity="0" result="BackgroundImageFix"/>
<feBlend mode="normal" in="SourceGraphic" in2="BackgroundImageFix" result="shape"/>
<feColorMatrix in="SourceAlpha" type="matrix" values="0 0 0 0 0 0 0 0 0 0 0 0 0 0 0 0 0 0 127 0" result="hardAlpha"/>
<feOffset dx="-1" dy="1"/>
<feGaussianBlur stdDeviation="2.25"/>
<feComposite in2="hardAlpha" operator="arithmetic" k2="-1" k3="1"/>
<feColorMatrix type="matrix" values="0 0 0 0 1 0 0 0 0 1 0 0 0 0 1 0 0 0 0.4 0"/>
<feBlend mode="normal" in2="shape" result="effect1_innerShadow_866_1465"/>
</filter>
<filter id="filter13_d_866_1465" x="42.5006" y="65.8069" width="232.416" height="224.153" filterUnits="userSpaceOnUse" color-interpolation-filters="sRGB">
<feFlood flood-opacity="0" result="BackgroundImageFix"/>
<feColorMatrix in="SourceAlpha" type="matrix" values="0 0 0 0 0 0 0 0 0 0 0 0 0 0 0 0 0 0 127 0" result="hardAlpha"/>
<feOffset dy="-1"/>
<feGaussianBlur stdDeviation="9.3"/>
<feComposite in2="hardAlpha" operator="out"/>
<feColorMatrix type="matrix" values="0 0 0 0 0 0 0 0 0 0 0 0 0 0 0 0 0 0 0.1 0"/>
<feBlend mode="normal" in2="BackgroundImageFix" result="effect1_dropShadow_866_1465"/>
<feBlend mode="normal" in="SourceGraphic" in2="effect1_dropShadow_866_1465" result="shape"/>
</filter>
<filter id="filter14_d_866_1465" x="143.681" y="157.234" width="95.117" height="95.1166" filterUnits="userSpaceOnUse" color-interpolation-filters="sRGB">
<feFlood flood-opacity="0" result="BackgroundImageFix"/>
<feColorMatrix in="SourceAlpha" type="matrix" values="0 0 0 0 0 0 0 0 0 0 0 0 0 0 0 0 0 0 127 0" result="hardAlpha"/>
<feOffset dy="-1"/>
<feGaussianBlur stdDeviation="9.3"/>
<feComposite in2="hardAlpha" operator="out"/>
<feColorMatrix type="matrix" values="0 0 0 0 0 0 0 0 0 0 0 0 0 0 0 0 0 0 0.3 0"/>
<feBlend mode="normal" in2="BackgroundImageFix" result="effect1_dropShadow_866_1465"/>
<feBlend mode="normal" in="SourceGraphic" in2="effect1_dropShadow_866_1465" result="shape"/>
</filter>
<filter id="filter15_i_866_1465" x="161.228" y="177.864" width="40.3896" height="55.6326" filterUnits="userSpaceOnUse" color-interpolation-filters="sRGB">
<feFlood flood-opacity="0" result="BackgroundImageFix"/>
<feBlend mode="normal" in="SourceGraphic" in2="BackgroundImageFix" result="shape"/>
<feColorMatrix in="SourceAlpha" type="matrix" values="0 0 0 0 0 0 0 0 0 0 0 0 0 0 0 0 0 0 127 0" result="hardAlpha"/>
<feOffset dx="-1" dy="4"/>
<feGaussianBlur stdDeviation="8.1"/>
<feComposite in2="hardAlpha" operator="arithmetic" k2="-1" k3="1"/>
<feColorMatrix type="matrix" values="0 0 0 0 1 0 0 0 0 1 0 0 0 0 1 0 0 0 0.5 0"/>
<feBlend mode="normal" in2="shape" result="effect1_innerShadow_866_1465"/>
</filter>
<filter id="filter16_d_866_1465" x="74.7955" y="116.332" width="95.117" height="95.1165" filterUnits="userSpaceOnUse" color-interpolation-filters="sRGB">
<feFlood flood-opacity="0" result="BackgroundImageFix"/>
<feColorMatrix in="SourceAlpha" type="matrix" values="0 0 0 0 0 0 0 0 0 0 0 0 0 0 0 0 0 0 127 0" result="hardAlpha"/>
<feOffset dy="-1"/>
<feGaussianBlur stdDeviation="9.3"/>
<feComposite in2="hardAlpha" operator="out"/>
<feColorMatrix type="matrix" values="0 0 0 0 0 0 0 0 0 0 0 0 0 0 0 0 0 0 0.3 0"/>
<feBlend mode="normal" in2="BackgroundImageFix" result="effect1_dropShadow_866_1465"/>
<feBlend mode="normal" in="SourceGraphic" in2="effect1_dropShadow_866_1465" result="shape"/>
</filter>
<filter id="filter17_i_866_1465" x="101.93" y="152.087" width="50.5205" height="44.589" filterUnits="userSpaceOnUse" color-interpolation-filters="sRGB">
<feFlood flood-opacity="0" result="BackgroundImageFix"/>
<feBlend mode="normal" in="SourceGraphic" in2="BackgroundImageFix" result="shape"/>
<feColorMatrix in="SourceAlpha" type="matrix" values="0 0 0 0 0 0 0 0 0 0 0 0 0 0 0 0 0 0 127 0" result="hardAlpha"/>
<feOffset dx="-1" dy="4"/>
<feGaussianBlur stdDeviation="8.1"/>
<feComposite in2="hardAlpha" operator="arithmetic" k2="-1" k3="1"/>
<feColorMatrix type="matrix" values="0 0 0 0 1 0 0 0 0 1 0 0 0 0 1 0 0 0 0.5 0"/>
<feBlend mode="normal" in2="shape" result="effect1_innerShadow_866_1465"/>
</filter>
<filter id="filter18_d_866_1465" x="34.8736" y="135.211" width="208.995" height="160.821" filterUnits="userSpaceOnUse" color-interpolation-filters="sRGB">
<feFlood flood-opacity="0" result="BackgroundImageFix"/>
<feColorMatrix in="SourceAlpha" type="matrix" values="0 0 0 0 0 0 0 0 0 0 0 0 0 0 0 0 0 0 127 0" result="hardAlpha"/>
<feOffset dy="-1"/>
<feGaussianBlur stdDeviation="9.3"/>
<feComposite in2="hardAlpha" operator="out"/>
<feColorMatrix type="matrix" values="0 0 0 0 0 0 0 0 0 0 0 0 0 0 0 0 0 0 0.1 0"/>
<feBlend mode="normal" in2="BackgroundImageFix" result="effect1_dropShadow_866_1465"/>
<feBlend mode="normal" in="SourceGraphic" in2="effect1_dropShadow_866_1465" result="shape"/>
</filter>
<filter id="filter19_i_866_1465" x="130.882" y="212.829" width="14.6582" height="14.3805" filterUnits="userSpaceOnUse" color-interpolation-filters="sRGB">
<feFlood flood-opacity="0" result="BackgroundImageFix"/>
<feBlend mode="normal" in="SourceGraphic" in2="BackgroundImageFix" result="shape"/>
<feColorMatrix in="SourceAlpha" type="matrix" values="0 0 0 0 0 0 0 0 0 0 0 0 0 0 0 0 0 0 127 0" result="hardAlpha"/>
<feOffset dx="-1" dy="4"/>
<feGaussianBlur stdDeviation="8.1"/>
<feComposite in2="hardAlpha" operator="arithmetic" k2="-1" k3="1"/>
<feColorMatrix type="matrix" values="0 0 0 0 1 0 0 0 0 1 0 0 0 0 1 0 0 0 0.5 0"/>
<feBlend mode="normal" in2="shape" result="effect1_innerShadow_866_1465"/>
</filter>
<filter id="filter20_d_866_1465" x="115.342" y="172.573" width="63.8953" height="55.3787" filterUnits="userSpaceOnUse" color-interpolation-filters="sRGB">
<feFlood flood-opacity="0" result="BackgroundImageFix"/>
<feColorMatrix in="SourceAlpha" type="matrix" values="0 0 0 0 0 0 0 0 0 0 0 0 0 0 0 0 0 0 127 0" result="hardAlpha"/>
<feOffset dy="-1"/>
<feGaussianBlur stdDeviation="9.3"/>
<feComposite in2="hardAlpha" operator="out"/>
<feColorMatrix type="matrix" values="0 0 0 0 0 0 0 0 0 0 0 0 0 0 0 0 0 0 0.3 0"/>
<feBlend mode="normal" in2="BackgroundImageFix" result="effect1_dropShadow_866_1465"/>
<feBlend mode="normal" in="SourceGraphic" in2="effect1_dropShadow_866_1465" result="shape"/>
</filter>
<filter id="filter21_i_866_1465" x="177.64" y="231.589" width="26.4492" height="24.0719" filterUnits="userSpaceOnUse" color-interpolation-filters="sRGB">
<feFlood flood-opacity="0" result="BackgroundImageFix"/>
<feBlend mode="normal" in="SourceGraphic" in2="BackgroundImageFix" result="shape"/>
<feColorMatrix in="SourceAlpha" type="matrix" values="0 0 0 0 0 0 0 0 0 0 0 0 0 0 0 0 0 0 127 0" result="hardAlpha"/>
<feOffset dx="-1" dy="4"/>
<feGaussianBlur stdDeviation="8.1"/>
<feComposite in2="hardAlpha" operator="arithmetic" k2="-1" k3="1"/>
<feColorMatrix type="matrix" values="0 0 0 0 1 0 0 0 0 1 0 0 0 0 1 0 0 0 0.5 0"/>
<feBlend mode="normal" in2="shape" result="effect1_innerShadow_866_1465"/>
</filter>
<filter id="filter22_i_866_1465" x="77.9121" y="172.317" width="26.9443" height="24.2941" filterUnits="userSpaceOnUse" color-interpolation-filters="sRGB">
<feFlood flood-opacity="0" result="BackgroundImageFix"/>
<feBlend mode="normal" in="SourceGraphic" in2="BackgroundImageFix" result="shape"/>
<feColorMatrix in="SourceAlpha" type="matrix" values="0 0 0 0 0 0 0 0 0 0 0 0 0 0 0 0 0 0 127 0" result="hardAlpha"/>
<feOffset dx="-1" dy="4"/>
<feGaussianBlur stdDeviation="8.1"/>
<feComposite in2="hardAlpha" operator="arithmetic" k2="-1" k3="1"/>
<feColorMatrix type="matrix" values="0 0 0 0 1 0 0 0 0 1 0 0 0 0 1 0 0 0 0.5 0"/>
<feBlend mode="normal" in2="shape" result="effect1_innerShadow_866_1465"/>
</filter>
<linearGradient id="paint0_linear_866_1465" x1="243.28" y1="114.968" x2="186.433" y2="175.959" gradientUnits="userSpaceOnUse">
<stop stop-color="white"/>
<stop offset="1" stop-color="#D1D9DE"/>
</linearGradient>
<linearGradient id="paint1_linear_866_1465" x1="208.454" y1="72.1647" x2="181.816" y2="99.0996" gradientUnits="userSpaceOnUse">
<stop stop-color="white"/>
<stop offset="1" stop-color="#D1D9DE"/>
</linearGradient>
<linearGradient id="paint2_linear_866_1465" x1="243.28" y1="114.968" x2="186.433" y2="175.959" gradientUnits="userSpaceOnUse">
<stop stop-color="white"/>
<stop offset="1" stop-color="#D1D9DE"/>
</linearGradient>
<linearGradient id="paint3_linear_866_1465" x1="208.454" y1="72.1647" x2="181.816" y2="99.0996" gradientUnits="userSpaceOnUse">
<stop stop-color="white"/>
<stop offset="1" stop-color="#D1D9DE"/>
</linearGradient>
<linearGradient id="paint4_linear_866_1465" x1="72.9587" y1="252.483" x2="39.5128" y2="268.934" gradientUnits="userSpaceOnUse">
<stop stop-color="#FFD569"/>
<stop offset="1" stop-color="#E29F3A"/>
</linearGradient>
<linearGradient id="paint5_linear_866_1465" x1="141.985" y1="294.072" x2="108.199" y2="278.332" gradientUnits="userSpaceOnUse">
<stop stop-color="#FFD569"/>
<stop offset="1" stop-color="#E29F3A"/>
</linearGradient>
<linearGradient id="paint6_linear_866_1465" x1="199.518" y1="261.476" x2="141.075" y2="208.172" gradientUnits="userSpaceOnUse">
<stop stop-color="white"/>
<stop offset="1" stop-color="#D1D9DE"/>
</linearGradient>
<linearGradient id="paint7_linear_866_1465" x1="62.5443" y1="187.715" x2="139.359" y2="206.595" gradientUnits="userSpaceOnUse">
<stop stop-color="white"/>
<stop offset="1" stop-color="#D1D9DE"/>
</linearGradient>
<linearGradient id="paint8_linear_866_1465" x1="125.468" y1="240.29" x2="55.9135" y2="273.356" gradientUnits="userSpaceOnUse">
<stop stop-color="white"/>
<stop offset="1" stop-color="#D1D9DE"/>
</linearGradient>
<linearGradient id="paint9_linear_866_1465" x1="118.142" y1="245.05" x2="95.9078" y2="252.868" gradientUnits="userSpaceOnUse">
<stop stop-color="#FFD569"/>
<stop offset="1" stop-color="#E29F3A"/>
</linearGradient>
<linearGradient id="paint10_linear_866_1465" x1="207.742" y1="99.4892" x2="-5.64708" y2="156.042" gradientUnits="userSpaceOnUse">
<stop stop-color="white"/>
<stop offset="1" stop-color="#D1D9DE"/>
</linearGradient>
<linearGradient id="paint11_linear_866_1465" x1="206.039" y1="180.907" x2="134.382" y2="191.184" gradientUnits="userSpaceOnUse">
<stop stop-color="white"/>
<stop offset="1" stop-color="#D1D9DE"/>
</linearGradient>
<linearGradient id="paint12_linear_866_1465" x1="206.039" y1="180.907" x2="134.382" y2="191.184" gradientUnits="userSpaceOnUse">
<stop stop-color="white"/>
<stop offset="1" stop-color="#D1D9DE"/>
</linearGradient>
<linearGradient id="paint13_linear_866_1465" x1="137.153" y1="140.004" x2="65.4965" y2="150.282" gradientUnits="userSpaceOnUse">
<stop stop-color="white"/>
<stop offset="1" stop-color="#D1D9DE"/>
</linearGradient>
<linearGradient id="paint14_linear_866_1465" x1="137.153" y1="140.004" x2="65.4965" y2="150.282" gradientUnits="userSpaceOnUse">
<stop stop-color="white"/>
<stop offset="1" stop-color="#D1D9DE"/>
</linearGradient>
<linearGradient id="paint15_linear_866_1465" x1="152.896" y1="193.864" x2="57.219" y2="264.589" gradientUnits="userSpaceOnUse">
<stop stop-color="white"/>
<stop offset="1" stop-color="#D1D9DE"/>
</linearGradient>
<linearGradient id="paint16_linear_866_1465" x1="139.819" y1="209.401" x2="136.92" y2="225.544" gradientUnits="userSpaceOnUse">
<stop stop-color="#C2454C"/>
<stop offset="1" stop-color="#5C2024"/>
</linearGradient>
<linearGradient id="paint17_linear_866_1465" x1="150.105" y1="196.528" x2="129.14" y2="201.505" gradientUnits="userSpaceOnUse">
<stop stop-color="#FFD569"/>
<stop offset="1" stop-color="#E29F3A"/>
</linearGradient>
<linearGradient id="paint18_linear_866_1465" x1="146.977" y1="120.652" x2="143.156" y2="127.076" gradientUnits="userSpaceOnUse">
<stop/>
<stop offset="1" stop-color="#666666"/>
</linearGradient>
<linearGradient id="paint19_linear_866_1465" x1="217.447" y1="163.344" x2="213.626" y2="169.768" gradientUnits="userSpaceOnUse">
<stop/>
<stop offset="1" stop-color="#666666"/>
</linearGradient>
</defs>
</svg>
