<svg width="54" height="44" viewBox="0 0 54 44" fill="none" xmlns="http://www.w3.org/2000/svg">
<path d="M0 36.4293C0 36.4293 0 36.4263 0 36.4232C0.0598404 32.8025 1.0891 29.4201 2.33976 26.1141C5.07746 18.8787 8.98205 12.4194 14.3587 6.99595C17.2879 4.03825 20.5552 1.58165 24.5615 0.493898C31.3444 -1.34855 38.2111 2.04608 40.0991 9.30283C41.2001 13.5316 40.1499 17.4182 37.7174 20.9198C36.5565 22.5911 35.3358 24.2197 34.2108 25.9185C31.7394 29.6523 30.761 33.8291 30.9854 38.339C31.0871 40.3556 30.4348 42.0117 28.861 43.1178C25.8182 45.2536 21.749 43.2981 20.998 39.5429C20.6988 38.0518 18.5505 34.7061 15.8966 34.7061C13.2427 34.7061 11.238 35.4944 10.0053 39.6834C9.13165 42.6472 6.6363 44.1964 3.85372 43.5119C1.56184 42.9497 0.601396 41.1898 0.185505 38.9898C0.0329123 38.1557 0.0568484 37.2849 0 36.4293Z" fill="#1D1D1D"/>
<path d="M44.5751 43.9977C49.7803 43.9977 54 39.6886 54 34.373C54 29.0574 49.7803 24.7482 44.5751 24.7482C39.3699 24.7482 35.1503 29.0574 35.1503 34.373C35.1503 39.6886 39.3699 43.9977 44.5751 43.9977Z" fill="#1D1D1D"/>
</svg>
