<svg width="137" height="154" viewBox="0 0 137 154" fill="none" xmlns="http://www.w3.org/2000/svg">
<g clip-path="url(#clip0_73_1255)">
<rect x="66" y="80.9048" width="40" height="80" rx="20" transform="rotate(-25 66 80.9048)" fill="url(#paint0_linear_73_1255)"/>
<rect x="66" y="80.9048" width="40" height="80" rx="20" transform="rotate(-25 66 80.9048)" fill="black" fill-opacity="0.2"/>
<rect x="66" y="80.9048" width="40" height="80" transform="rotate(-25 66 80.9048)" fill="url(#paint1_linear_73_1255)"/>
<circle cx="66.2751" cy="91.0327" r="5" transform="rotate(-25 66.2751 91.0327)" fill="url(#paint2_linear_73_1255)"/>
<circle cx="80.776" cy="84.2709" r="5" transform="rotate(-25 80.776 84.2709)" fill="url(#paint3_linear_73_1255)"/>
<circle cx="95.277" cy="77.5089" r="5" transform="rotate(-25 95.277 77.5089)" fill="url(#paint4_linear_73_1255)"/>
<circle cx="109.778" cy="70.7471" r="5" transform="rotate(-25 109.778 70.7471)" fill="url(#paint5_linear_73_1255)"/>
<circle cx="77.7518" cy="96.7148" r="5" transform="rotate(-25 77.7518 96.7148)" fill="url(#paint6_linear_73_1255)"/>
<circle cx="92.2527" cy="89.953" r="5" transform="rotate(-25 92.2527 89.953)" fill="url(#paint7_linear_73_1255)"/>
<circle cx="106.754" cy="83.191" r="5" transform="rotate(-25 106.754 83.191)" fill="url(#paint8_linear_73_1255)"/>
<circle cx="121.255" cy="76.4292" r="5" transform="rotate(-25 121.255 76.4292)" fill="url(#paint9_linear_73_1255)"/>
<circle cx="75.6338" cy="108.736" r="5" transform="rotate(-25 75.6338 108.736)" fill="url(#paint10_linear_73_1255)"/>
<circle cx="90.1347" cy="101.974" r="5" transform="rotate(-25 90.1347 101.974)" fill="url(#paint11_linear_73_1255)"/>
<circle cx="104.636" cy="95.2125" r="5" transform="rotate(-25 104.636 95.2125)" fill="url(#paint12_linear_73_1255)"/>
<circle cx="87.1105" cy="114.418" r="5" transform="rotate(-25 87.1105 114.418)" fill="url(#paint13_linear_73_1255)"/>
<circle cx="101.611" cy="107.656" r="5" transform="rotate(-25 101.611 107.656)" fill="url(#paint14_linear_73_1255)"/>
<circle cx="116.112" cy="100.895" r="5" transform="rotate(-25 116.112 100.895)" fill="url(#paint15_linear_73_1255)"/>
</g>
<rect x="63.3928" width="40" height="150" rx="20" transform="rotate(25 63.3928 0)" fill="url(#paint16_linear_73_1255)"/>
<rect x="63.3928" width="40" height="150" rx="20" transform="rotate(25 63.3928 0)" fill="black" fill-opacity="0.2"/>
<defs>
<linearGradient id="paint0_linear_73_1255" x1="29.492" y1="236.513" x2="175.81" y2="197.104" gradientUnits="userSpaceOnUse">
<stop offset="0.492664" stop-color="#0B0B0B"/>
<stop offset="0.9207" stop-color="#3D3D3D"/>
</linearGradient>
<linearGradient id="paint1_linear_73_1255" x1="65.415" y1="77.4269" x2="57.2753" y2="131.559" gradientUnits="userSpaceOnUse">
<stop stop-color="#1F1F1F"/>
<stop offset="1" stop-color="#0B0B0B"/>
</linearGradient>
<linearGradient id="paint2_linear_73_1255" x1="66.2751" y1="86.0327" x2="66.2751" y2="108.176" gradientUnits="userSpaceOnUse">
<stop stop-color="#040404"/>
<stop offset="1" stop-color="#313131"/>
</linearGradient>
<linearGradient id="paint3_linear_73_1255" x1="80.776" y1="79.2709" x2="80.776" y2="101.414" gradientUnits="userSpaceOnUse">
<stop stop-color="#040404"/>
<stop offset="1" stop-color="#313131"/>
</linearGradient>
<linearGradient id="paint4_linear_73_1255" x1="95.277" y1="72.5089" x2="95.277" y2="94.6518" gradientUnits="userSpaceOnUse">
<stop stop-color="#040404"/>
<stop offset="1" stop-color="#313131"/>
</linearGradient>
<linearGradient id="paint5_linear_73_1255" x1="109.778" y1="65.7471" x2="109.778" y2="87.8899" gradientUnits="userSpaceOnUse">
<stop stop-color="#040404"/>
<stop offset="1" stop-color="#313131"/>
</linearGradient>
<linearGradient id="paint6_linear_73_1255" x1="77.7518" y1="91.7148" x2="77.7518" y2="113.858" gradientUnits="userSpaceOnUse">
<stop stop-color="#040404"/>
<stop offset="1" stop-color="#313131"/>
</linearGradient>
<linearGradient id="paint7_linear_73_1255" x1="92.2527" y1="84.953" x2="92.2527" y2="107.096" gradientUnits="userSpaceOnUse">
<stop stop-color="#040404"/>
<stop offset="1" stop-color="#313131"/>
</linearGradient>
<linearGradient id="paint8_linear_73_1255" x1="106.754" y1="78.191" x2="106.754" y2="100.334" gradientUnits="userSpaceOnUse">
<stop stop-color="#040404"/>
<stop offset="1" stop-color="#313131"/>
</linearGradient>
<linearGradient id="paint9_linear_73_1255" x1="121.255" y1="71.4292" x2="121.255" y2="93.5721" gradientUnits="userSpaceOnUse">
<stop stop-color="#040404"/>
<stop offset="1" stop-color="#313131"/>
</linearGradient>
<linearGradient id="paint10_linear_73_1255" x1="75.6338" y1="103.736" x2="75.6338" y2="125.879" gradientUnits="userSpaceOnUse">
<stop stop-color="#040404"/>
<stop offset="1" stop-color="#313131"/>
</linearGradient>
<linearGradient id="paint11_linear_73_1255" x1="90.1347" y1="96.9744" x2="90.1347" y2="119.117" gradientUnits="userSpaceOnUse">
<stop stop-color="#040404"/>
<stop offset="1" stop-color="#313131"/>
</linearGradient>
<linearGradient id="paint12_linear_73_1255" x1="104.636" y1="90.2125" x2="104.636" y2="112.355" gradientUnits="userSpaceOnUse">
<stop stop-color="#040404"/>
<stop offset="1" stop-color="#313131"/>
</linearGradient>
<linearGradient id="paint13_linear_73_1255" x1="87.1105" y1="109.418" x2="87.1105" y2="131.561" gradientUnits="userSpaceOnUse">
<stop stop-color="#040404"/>
<stop offset="1" stop-color="#313131"/>
</linearGradient>
<linearGradient id="paint14_linear_73_1255" x1="101.611" y1="102.656" x2="101.611" y2="124.799" gradientUnits="userSpaceOnUse">
<stop stop-color="#040404"/>
<stop offset="1" stop-color="#313131"/>
</linearGradient>
<linearGradient id="paint15_linear_73_1255" x1="116.112" y1="95.8946" x2="116.112" y2="118.038" gradientUnits="userSpaceOnUse">
<stop stop-color="#040404"/>
<stop offset="1" stop-color="#313131"/>
</linearGradient>
<linearGradient id="paint16_linear_73_1255" x1="26.8847" y1="291.765" x2="180.644" y2="269.678" gradientUnits="userSpaceOnUse">
<stop offset="0.492664" stop-color="#0B0B0B"/>
<stop offset="0.9207" stop-color="#3D3D3D"/>
</linearGradient>
<clipPath id="clip0_73_1255">
<rect x="66" y="80.9048" width="40" height="80" rx="20" transform="rotate(-25 66 80.9048)" fill="white"/>
</clipPath>
</defs>
</svg>
